<svg xmlns="http://www.w3.org/2000/svg" xmlns:xlink="http://www.w3.org/1999/xlink" width="137.557" height="46.081" viewBox="0 0 137.557 46.081">
  <defs>
    <clipPath id="clip-path">
      <rect id="Rectangle_2038" data-name="Rectangle 2038" width="137.467" height="30.623" fill="none"/>
    </clipPath>
  </defs>
  <g id="Logo" transform="translate(-240 -85.028)">
    <path id="Path_10968" data-name="Path 10968" d="M1.066-9.55H6.159v1.217H2.434v2.666H6.159V-4.45H2.434V0H1.066Zm9.649,0h1.367V0H10.716Zm14.154,0h1.3V0H24.993L18.608-7.349V0H17.323V-9.55h1.107L24.87-2.14ZM34.342-9.6h.964L39.578,0h-1.4L36.905-2.83H32.844L31.641,0h-1.4Zm2,5.558L34.806-7.506,33.378-4.047ZM51.3-9.55h1.3V0H51.422L45.037-7.349V0H43.752V-9.55h1.107L51.3-2.14ZM65.952-2.215v1.5a7.137,7.137,0,0,1-3.473.82,5.351,5.351,0,0,1-2.714-.643A4.732,4.732,0,0,1,58-2.3a4.808,4.808,0,0,1-.649-2.44,4.66,4.66,0,0,1,1.487-3.507,5.1,5.1,0,0,1,3.667-1.422,8.6,8.6,0,0,1,3.343.786v1.47a6.58,6.58,0,0,0-3.274-.957,3.785,3.785,0,0,0-2.724,1.036,3.439,3.439,0,0,0-1.083,2.594A3.406,3.406,0,0,0,59.834-2.16a3.8,3.8,0,0,0,2.728,1.012A6.186,6.186,0,0,0,65.952-2.215ZM70.713-9.55h5.414v1.217H72.081v2.912h3.91V-4.2h-3.91V-1.23h4.177V-.014H70.713Z" transform="translate(301.3 131)" fill="#fff"/>
    <g id="Group_3254" data-name="Group 3254" transform="translate(240 85.028)" clip-path="url(#clip-path)">
      <path id="Path_9328" data-name="Path 9328" d="M31.61,8.912a9.889,9.889,0,0,0,3.321,7.73,9.886,9.886,0,0,0,3.321-7.73,9.882,9.882,0,0,0-3.321-7.73,9.886,9.886,0,0,0-3.321,7.73" transform="translate(67.064 2.522)" fill="#07e892"/>
      <path id="Path_9329" data-name="Path 9329" d="M39.584,24.925a12.156,12.156,0,0,1-5.07-22.394,6.3,6.3,0,0,1,.006,6.53,7.406,7.406,0,1,0,12.708-.075,6.182,6.182,0,0,1,.05-6.455,12.15,12.15,0,0,1-7.695,22.394" transform="translate(61.101 5.398)" fill="#07e892"/>
      <path id="Path_9330" data-name="Path 9330" d="M16.342,23.675a5.953,5.953,0,0,1-2.313,5.068q-2.294,1.738-6.883,1.741a22.179,22.179,0,0,1-4.008-.31,15.451,15.451,0,0,1-3.1-.949V24.352a20.339,20.339,0,0,0,3.68,1.294,14.869,14.869,0,0,0,3.624.523q3.2,0,3.2-1.854a1.519,1.519,0,0,0-.424-1.125A5.878,5.878,0,0,0,8.65,22.2q-1.039-.559-2.775-1.294a17.975,17.975,0,0,1-3.666-1.936,5.56,5.56,0,0,1-1.7-2.03A6.946,6.946,0,0,1-.006,14.1,5.132,5.132,0,0,1,2.211,9.65,10.827,10.827,0,0,1,8.535,8.065a17.832,17.832,0,0,1,7.576,1.7l-1.774,4.253a32.032,32.032,0,0,0-3.028-1.14,9.432,9.432,0,0,0-2.872-.445q-2.6,0-2.6,1.41a1.67,1.67,0,0,0,.83,1.375,23.129,23.129,0,0,0,3.681,1.723,17.023,17.023,0,0,1,3.7,1.914,5.652,5.652,0,0,1,1.736,2.052,6.331,6.331,0,0,1,.559,2.765M29.855,12.261a3.717,3.717,0,0,0-2.933,1.2,5.478,5.478,0,0,0-1.214,3.367h8.256a4.905,4.905,0,0,0-1.139-3.367,3.835,3.835,0,0,0-2.968-1.2m.83,18.223q-5.207,0-8.135-2.887t-2.933-8.162q0-5.436,2.7-8.394a9.65,9.65,0,0,1,7.5-2.979,9.473,9.473,0,0,1,7.114,2.612,9.9,9.9,0,0,1,2.544,7.213V20.75h-13.9a5.7,5.7,0,0,0,1.486,3.928,5.2,5.2,0,0,0,3.893,1.413,16.212,16.212,0,0,0,3.683-.407,18.249,18.249,0,0,0,3.624-1.3v4.57a14.191,14.191,0,0,1-3.3,1.159,21.3,21.3,0,0,1-4.28.37m22.5-18.223a3.709,3.709,0,0,0-2.933,1.2,5.448,5.448,0,0,0-1.214,3.367h8.248a4.884,4.884,0,0,0-1.136-3.367,3.835,3.835,0,0,0-2.968-1.2m.827,18.223q-5.2,0-8.135-2.887t-2.933-8.162q0-5.436,2.7-8.394a9.637,9.637,0,0,1,7.5-2.979,9.473,9.473,0,0,1,7.114,2.612A9.9,9.9,0,0,1,62.8,17.888v2.863H48.9a5.671,5.671,0,0,0,1.483,3.928,5.212,5.212,0,0,0,3.9,1.413,16.165,16.165,0,0,0,3.681-.407,18.11,18.11,0,0,0,3.624-1.3v4.569a14.09,14.09,0,0,1-3.3,1.159,21.253,21.253,0,0,1-4.28.37m20.4,0a7.014,7.014,0,0,1-5.975-2.96q-2.159-2.96-2.16-8.2,0-5.318,2.2-8.278a7.176,7.176,0,0,1,6.09-2.979,7.024,7.024,0,0,1,6.209,3.173h.193a24.125,24.125,0,0,1-.443-4.313V0h5.9V30.1H81.9L80.768,27.29h-.25a6.72,6.72,0,0,1-6.112,3.195m2.062-4.7a3.947,3.947,0,0,0,3.3-1.316A7.646,7.646,0,0,0,80.923,20V19.36q0-3.477-1.08-4.989a3.946,3.946,0,0,0-3.471-1.507,3.468,3.468,0,0,0-3.066,1.682,9,9,0,0,0-1.08,4.855,8.483,8.483,0,0,0,1.1,4.8,3.6,3.6,0,0,0,3.144,1.588" transform="translate(0.006 0.001)" fill="#fff"/>
      <path id="Path_9331" data-name="Path 9331" d="M57.558,10.671v14.1H51.677V12.14a6.035,6.035,0,0,0-.827-3.5A2.991,2.991,0,0,0,48.209,7.46a3.962,3.962,0,0,0-3.568,1.663q-1.1,1.645-1.1,5.476V24.772H37.664V3.148h4.491l.791,2.765h.328a6.17,6.17,0,0,1,2.7-2.362A9.174,9.174,0,0,1,49.9,2.74,7.5,7.5,0,0,1,55.61,4.792a8.163,8.163,0,0,1,1.948,5.879" transform="translate(79.909 5.849)" fill="#07e892"/>
    </g>
  </g>
</svg>
